<?xml version="1.0" encoding="UTF-8"?><svg id="_레이어_1" xmlns="http://www.w3.org/2000/svg" viewBox="0 0 50 50"><path d="M36.3,36.6c0,1.8-1.5,3.2-3.2,3.2h-16.4c-1.8,0-3.2-1.5-3.2-3.2V13.4c0-1.8,1.5-3.2,3.2-3.2h10.2v6c0,2.1,1.7,3.9,3.9,3.9h5.5v2.6c0,.8.6,1.4,1.4,1.4h0c.8,0,1.4-.6,1.4-1.4v-3.5c0-1-.4-1.9-1.1-2.6l-8.1-8.1c-.7-.7-1.6-1.1-2.6-1.1h-10.7c-3.4,0-6.1,2.7-6.1,6.1v23.2c0,3.4,2.7,6.1,6.1,6.1h16.4c3.4,0,6.1-2.7,6.1-6.1v-1.9c0-.8-.6-1.4-1.4-1.4h0c-.8,0-1.4.6-1.4,1.4v1.9ZM29.7,16.1v-3.9l5,5h-3.9c-.6,0-1.1-.5-1.1-1.1Z"/><path d="M40,26.3h-11.6s1.1-1.1,1.1-1.1c.8-.8.9-2.1.2-2.9s-2.3-1-3.2-.2l-4.8,4.8c-.4.4-.6.9-.6,1.5s.2,1.1.6,1.5l4.9,4.9c.4.4,1,.6,1.5.6s1.2-.2,1.6-.7c.7-.9.6-2.2-.2-3l-1.1-1.1h11.7c1.2,0,2.2-1.1,2.1-2.3s-1.1-1.9-2.2-1.9Z"/></svg>