<?xml version="1.0" encoding="UTF-8"?><svg id="_레이어_1" xmlns="http://www.w3.org/2000/svg" viewBox="0 0 50 50"><defs><style>.cls-1{fill:#fff;}</style></defs><path class="cls-1" d="M43.2,2.4c-.8,0-1.6.3-2.2.8-2.4,1.8-4.6,3.8-6.7,5.7l-.5.5s0,0,0,0c-1.1,1-2.2,2.1-3.3,3.1-5.1,4.7-10.3,9.6-13,16.5-1.7.2-3.4.8-4.8,1.9-.1.1-.3.2-.4.3-1.7,1.5-2.6,3.4-3.4,5.1-.3.6-.6,1.1-.8,1.6-.6,1.1-1.7,2.6-3.3,3.5-1,.5-1.6,1.6-1.5,2.7s.8,2.1,1.8,2.5c1.8.7,3.6,1,5.5,1s2.4-.1,3.6-.4c3-.7,5.8-2.4,7.9-4.6,1.3-1.4,2.1-2.8,2.6-4.3.3-1,.4-2,.3-3,2.3-1.5,4.7-3.5,5.2-3.9,0,0,0,0,.1-.1,3.4-3.4,6-7.4,8.6-11.2.9-1.3,1.8-2.7,2.7-4,0,0,0,0,0-.1l.4-.6c1.5-2.4,3.1-4.9,4.5-7.6.7-1.3.6-2.8-.3-3.9-.7-.9-1.7-1.4-2.8-1.4ZM21.9,37.4c-.4,1.2-1.1,2.3-1.9,3.2-1.7,1.9-4,3.2-6.5,3.8-.4.1-.9.2-1.3.2,0,0-.2,0-.3,0-.4,0-.9,0-1.3,0,0,0-.2,0-.3,0-.3,0-.5,0-.8,0-.1,0-.3,0-.4,0-.2,0-.5,0-.7,0-.1,0-.3,0-.4,0-.2,0-.5-.1-.7-.2-.1,0-.2,0-.3,0-.3,0-.7-.2-1-.3,1.9-1,3.3-2.7,4.4-4.6.7-1.3,1.3-2.7,2.1-3.9.3-.5.6-1,1-1.4s.4-.4.6-.6c0,0,.2-.2.3-.2.2-.2.5-.4.8-.5,0,0,0,0,.1,0,.3-.1.5-.3.8-.4,0,0,.1,0,.2,0,.3-.1.6-.2.9-.2,0,0,0,0,.1,0,0,0,0,0,0,0,.3,0,.6,0,.9,0,0,0,0,0,0,0,.2,0,.4,0,.6,0,.4,0,.8.1,1.2.3.2,0,.4.2.5.3.5.3.8.8,1.1,1.3,0,.2.1.4.2.5,0,.2.1.5.2.7,0,.3,0,.6,0,.8,0,.5,0,1-.2,1.5ZM43.9,6.4c-1.5,2.8-3.2,5.4-4.8,8-3.5,5.1-6.6,10.5-11,14.9-.4.4-2.2,1.9-4.1,3.2-.5-.9-1.1-1.6-1.8-2.2-.3-.2-.6-.4-1-.6-.3-.1-.6-.2-.9-.3,3.2-7.3,9.6-12.3,15.3-17.9,2.3-2.1,4.6-4.1,7.1-6.1,0,0,.2-.1.3-.1,0,0,0,0,0,0,0,0,.1,0,.2,0,0,0,.1,0,.2,0,0,0,0,0,0,0,0,0,.2.1.3.2.2.2.2.6,0,.8Z"/></svg>