<?xml version="1.0" encoding="UTF-8"?><svg id="_레이어_1" xmlns="http://www.w3.org/2000/svg" viewBox="0 0 50 50"><defs><style>.cls-1{fill:#fff;}</style></defs><path class="cls-1" d="M41.6,6.2c-1.3-1.1-2.5-1.2-3.3-1.1-1.8.3-2.9,1.8-3,1.9l-8.7,11.7c-.8-.1-1.6,0-2.2.3-1,.4-1.5,1.2-1.8,1.8-1.3.1-2.3.8-3.1,1.3-1.1.8-2,1.8-2.7,2.5-.5.6-1,1.1-1.4,1.7-.3.4-.6.8-.9,1.3-.3.5-.6,1-1,1.4,0,0-.1.1-.2.2-.9.8-2.2,1.3-3.7,1.4-.6,0-1.1.2-1.6.4-.5.2-1,.6-1.3,1-.4.6-.5,1.4-.2,2.1.4,1.3,1.8,2,2.9,2.2h.1c0,0,.2,0,.3,0,0,.1,0,.2,0,.3,0,1.1.5,2.1,1.4,2.6.4.2,1,.5,1.8.5s1.6-.2,2.7-.8c.7-.4,1.2-.7,1.7-1,0,.7,0,1.4.1,2.1,0,.3.5,2.6,2.2,3.7.6.4,1.4.7,2.2.7s.6,0,.8,0c.5-.1,1.2-.5,1.7-1.3.8.8,1.7,1.4,2.8,1.6.2,0,.4,0,.6,0,1.1,0,2.3-.4,2.9-1.5.8-1.2.4-2.5.1-3.5v-.3c-.4-1.2-.3-2.2.4-3.2,1.7-2.6,2.5-5.3,2.4-8.4.4-.5.9-1.3.9-2.4,0-.8-.3-1.6-.9-2.4.8-1,5.8-7.1,7.3-9.1.2-.3.5-.6.7-.9,1.3-1.6,3.4-4.1-.1-7ZM25.4,21.2c.8-.3,2.2.1,3.9,1.2,2.5,1.6,2.9,2.7,2.9,3.2-1.3-1.1-3.8-2.9-7.1-4.2,0,0,.2-.1.3-.2ZM29.4,35.1c-1.1,1.6-1.4,3.3-.8,5.2v.3c.2.6.4,1.2.2,1.6-.1.2-.6.4-1.1.3-1-.1-1.7-1.1-2-1.9-.4-1.1-.5-2.6-.2-4.3.2-.5.4-.9.7-1.3.4-.6.2-1.3-.3-1.7-.6-.4-1.3-.2-1.7.3-1.3,2-1.8,4.3-1.4,7,.2,1.2-.2,1.6-.3,1.6-1.8.3-2.4-2.1-2.4-2.4-.2-1.3,0-2.6.3-3.8,0,0,0,0,0-.1,1.3-4.4,5.1-7.8,5.2-7.8.5-.4.6-1.2.1-1.7-.4-.5-1.2-.6-1.7-.1-.2.2-4.3,3.8-5.9,8.7-.2.2-1,.8-3.4,2.1-1,.6-1.7.6-2,.4-.2-.2-.2-.4-.2-.5,0-.1,0-.3.3-.5,2.2-1.1,4.6-3,4.7-3.1.5-.4.6-1.2.2-1.7-.4-.5-1.2-.6-1.7-.2,0,0-2,1.7-3.9,2.7-.5.1-1.4,0-1.8-.1h-.1c-.6-.1-1-.4-1.1-.7,0,0,0,0,.2-.1.2,0,.5-.1.8-.2,2.1-.1,3.9-.9,5.2-2.1.1-.1.2-.2.3-.3.5-.5.9-1.1,1.3-1.7.2-.4.5-.7.8-1.1.4-.5.8-1,1.3-1.5.6-.7,1.4-1.5,2.3-2.2.9-.7,1.6-.9,2.3-.9,4.3,1.5,7.2,4,8.1,4.8.1,2.6-.6,4.8-2,7ZM39.8,11.7c-.3.3-.5.6-.8.9-1.4,1.8-5.9,7.3-7.1,8.8-.4-.3-.9-.7-1.4-1-.5-.3-1-.6-1.5-.9l8.2-11.1s.6-.8,1.4-.9c.4,0,.9.1,1.4.5,1.6,1.4,1.3,1.9-.2,3.6Z"/><path class="cls-1" d="M26.5,29.6l-.8,1.1c-.4.5-.3,1.3.3,1.7.2.2.5.2.7.2.4,0,.7-.2,1-.5l.8-1.1c.4-.5.3-1.3-.3-1.7-.5-.4-1.3-.3-1.7.3Z"/></svg>