<?xml version="1.0" encoding="UTF-8"?><svg id="_레이어_1" xmlns="http://www.w3.org/2000/svg" viewBox="0 0 50 50"><defs><style>.cls-1{fill:#fff;}</style></defs><path class="cls-1" d="M29.9,3.1c-1.3-1.1-3.3-1-4.4.3l-11.6,13.4s0,0,0,0,0,0,0,0l-4.1,4.7c-.5.6-.8,1.4-.7,2.3,0,.4.1.7.3,1l-5.4,6.2c-1.1,1.3-1,3.3.3,4.4l13.2,11.4h0c.6.5,1.3.8,2,.8s1.7-.4,2.4-1.1l5.4-6.2c.3,0,.5.1.8.1s.2,0,.2,0c.8,0,1.6-.4,2.1-1.1l4.1-4.7s0,0,0,0c0,0,0,0,0,0l11.6-13.4c1.1-1.3,1-3.3-.3-4.4L29.9,3.1ZM19.7,44.7c0,.1-.3.1-.4,0l-13.2-11.4c-.1,0-.1-.3,0-.4l5.2-6,6.8,5.9,6.8,5.9-5.2,6ZM28.2,37.5c0,0-.1,0-.2,0,0,0-.1,0-.2,0l-7.9-6.8-7.9-6.8s0,0,0,0h0c-.1-.1-.1-.3,0-.4l3.1-3.6,16.3,14-3.1,3.6ZM43.9,19.3l-10.7,12.4-16.3-14,10.7-12.4c0,0,.1,0,.2,0s.1,0,.2,0l15.9,13.7c0,0,0,.1,0,.2,0,0,0,.1,0,.2Z"/></svg>