<?xml version="1.0" encoding="UTF-8"?><svg id="_레이어_1" xmlns="http://www.w3.org/2000/svg" viewBox="0 0 50 50"><defs><style>.cls-1{fill:#fff;}</style></defs><path class="cls-1" d="M43.8,8.8c0-1.3-.7-2.6-1.7-3.5l-.4-.3c-1-.9-2.3-1.3-3.7-1.2-1.3.1-2.6.7-3.5,1.7l-4.1,4.7-.5-.4c-.9-.8-2.2-.7-3,.2l-2.9,3.4c-.8.9-.7,2.2.2,3l.5.4-13.8,16.1c-.8.9-1.1,2-1.1,3.2v1.3c0,0-3.4,4.1-3.4,4.1-.5.6-.4,1.4.1,1.9l1.2,1s0,0,0,0l1.7,1.5c.3.2.6.3.9.3s.8-.2,1-.5l3.5-4.1h1.3c1.2-.2,2.3-.7,3-1.6l13.8-16.1.4.3c.4.3.9.5,1.4.5s.1,0,.2,0c.6,0,1.1-.3,1.5-.7l2.9-3.4c.8-.9.7-2.2-.2-3l-.5-.4,4.1-4.7c.9-1,1.3-2.3,1.2-3.7ZM17.1,38.3c-.3.3-.7.6-1.2.6h-1.8c-.4.2-.7.3-.9.6l-3,3.5-.7-.6s0,0,0,0h-.1c0-.1,3-3.6,3-3.6.2-.3.4-.6.3-1v-1.8c-.2-.5,0-.9.3-1.2l13.8-16.1,4.1,3.5-13.8,16.1ZM34.7,21.9l-8.2-7.1,2.2-2.5,8.2,7.1-2.2,2.5ZM40.6,10.7l-3.9,4.5-4-3.4,3.9-4.5c.4-.5,1-.8,1.6-.8.6,0,1.2.2,1.7.6l.4.3c.5.4.8,1,.8,1.6s-.2,1.2-.6,1.7Z"/></svg>