<?xml version="1.0" encoding="UTF-8"?><svg id="_레이어_1" xmlns="http://www.w3.org/2000/svg" viewBox="0 0 35 35"><path d="M6.1,12.1c1.4-2.3,3.4-4.1,5.7-5.1,2.4-1,4.9-1.2,7.2-.6,1.5.4,3,1.1,4.2,2.1l-.3.2c-.1.1-.2.3-.2.5,0,.2.1.3.3.4l5.3,2.4c.5.2,1.1.2,1.6-.2.5-.3.7-.9.7-1.4l-.6-5.8c0-.2-.1-.3-.3-.4-.2,0-.4,0-.5,0l-.6.4c-2.6-1.9-5.7-3.1-8.8-3.4-3.3-.3-6.8.6-9.7,2.4-2.8,1.7-4.9,4.3-6.1,7.4-1.1,2.9-1.3,6.1-.5,9.1,0,.2.3.4.5.4s0,0,0,0c.3,0,.4-.3.4-.5-.3-2.8.3-5.6,1.7-7.9Z"/><path d="M31.6,14.8c0-.3-.3-.4-.6-.4-.3,0-.4.3-.4.5.3,2.8-.3,5.6-1.7,7.9-1.4,2.3-3.4,4.1-5.7,5.1-2.4,1-4.9,1.2-7.2.6-1.5-.4-3-1.1-4.2-2.1l.3-.2c.1-.1.2-.3.2-.5,0-.2-.1-.3-.3-.4l-5.3-2.4c-.5-.2-1.1-.2-1.6.2-.5.3-.7.9-.7,1.4l.6,5.8c0,.2.1.3.3.4.2,0,.4,0,.5,0l.6-.4c2.6,1.9,5.7,3.1,8.8,3.4.4,0,.8,0,1.3,0,2.9,0,5.9-.8,8.5-2.4,2.8-1.7,4.9-4.3,6.1-7.4,1.1-2.9,1.3-6.1.5-9.1Z"/></svg>