<?xml version="1.0" encoding="UTF-8"?><svg id="_레이어_1" xmlns="http://www.w3.org/2000/svg" viewBox="0 0 50 50"><defs><style>.cls-1{fill:#fff;}</style></defs><path class="cls-1" d="M39.6,24.4c-1.6-.9-3.3-1.4-5.1-1.6-.6-1.1-1.5-2.3-2.5-3.4-.5-2.9-3.1-15.5-10.7-15.1-2.3.1-4.2,1.1-5.4,2.9-1.6,2.2-2,5.4-1.9,8.3l-9.8,15.3s0,0,0,0c-1.8,2.4,0,7.4,4,11.1,2.8,2.5,6.4,3.9,9.7,3.7.5,0,.9,0,1.3-.2,1.1-.2,1.9-.7,2.4-1.3,0,0,0,0,0,0l12.4-14.3c2.3,2.7,4.5,7.3,8.4,6.1,1.6-.5,3-1.5,3-3.3,0-1.5-.8-3.1-1.6-4.3-1-1.6-2.4-3-4-3.9ZM18,14.4h0c0-.1,0-.1.2-.2.4,0,1.2,0,2.5.4,1.9.7,4.2,2.1,6.3,3.9,1.9,1.6,3.2,3.1,4.1,4.3-2.1.3-4.3.8-6.4.4-.3-.3-.7-.5-1-.8-2.1-1.8-3.9-3.8-4.9-5.6-.8-1.5-.9-2.3-.8-2.6ZM21.5,7.2c3.3-.2,5.5,4.6,6.7,8.7-2.2-1.7-4.5-3.1-6.5-3.8-2.2-.8-3.7-.8-4.7-.4.2-1.1.6-2,1.1-2.8.8-1.1,1.8-1.6,3.3-1.7ZM17.5,42.8c-.9,0-4.3,0-7.5-3-3.6-3.3-4.1-6.7-3.6-7.3,0,0,0,0,0,0,0,0,0,0,0,0l7.8-12.3c.3,1.6.6,2.7.6,2.9,0,.4.3.7.6.8l.9.6c.3.2.7.2,1,.2s.7-.3.9-.7c.4-.7.2-1.5-.5-1.9l-.4-.3c-.1-.6-.3-1.2-.4-2,1.2,1.7,2.8,3.5,4.8,5.1,2.7,2.3,5.9,4.2,8.5,4.8l-11,12.8s0,0,0,0c0,0,0,0,0,0,0,0-.7.4-1.9.5Z"/><path class="cls-1" d="M43.3,39.8s0,0,0,0c0-.2-.1-.4-.2-.6-.1-.3-.3-.5-.4-.6-.2-.2-.4-.3-.6-.4,0,0,0,0,0,0,0,0-.1-.1-.2-.2-.1,0-.3-.1-.4-.2-.3,0-.6,0-.8,0-.1,0-.2.2-.4.3-.2.2-.4.5-.5.9,0,0,0,0,0,0,0,.2,0,.4-.1.6,0,0,0,0,0,0,0,.1,0,.3,0,.4,0,.1,0,.3,0,.4,0,.3,0,.6.1.8,0,0,0,.2,0,.2,0,.3.2.5.3.8,0,0,0,.1.1.2.1.2.2.4.4.6.1.2.3.3.5.5.3.2.5.3.8.3.3,0,.5-.1.8-.4,0,0,0,0,0,0,0-.1.2-.3.3-.4,0,0,0,0,0,0,.1-.2.2-.4.3-.6,0,0,0,0,0,0,0-.2,0-.4.1-.6,0,0,0-.1,0-.2,0,0,0,0,0,0,0-.2,0-.5,0-.7,0,0,0-.1,0-.2,0-.3,0-.5-.1-.8Z"/><path class="cls-1" d="M46.5,37s0,0,0,0c0-.1,0-.2-.1-.3,0-.1-.2-.2-.3-.3-.1-.1-.2-.2-.3-.2,0,0,0,0,0,0,0,0,0,0-.1,0,0,0-.2,0-.2-.1-.2,0-.4,0-.5,0,0,0-.2,0-.2.1-.1.1-.2.3-.3.5,0,0,0,0,0,0,0,0,0,.2,0,.3,0,0,0,0,0,0,0,0,0,.2,0,.2,0,0,0,.1,0,.2,0,.2,0,.3,0,.5,0,0,0,0,0,.1,0,.1.1.3.2.4,0,0,0,0,0,.1,0,.1.2.2.2.3,0,.1.2.2.3.3.2.1.3.1.5.1.2,0,.3,0,.5-.2,0,0,0,0,0,0,0,0,.1-.2.2-.2,0,0,0,0,0,0,0-.1.1-.2.2-.3,0,0,0,0,0,0,0-.1,0-.2,0-.3,0,0,0,0,0-.1,0,0,0,0,0,0,0-.1,0-.2,0-.4,0,0,0,0,0-.1,0-.1,0-.3,0-.4Z"/></svg>